<!-- Generated by IcoMoon.io -->
<svg version="1.1" xmlns="http://www.w3.org/2000/svg" width="28" height="28" viewBox="0 0 32 32" fill="#4c4c4c">
  <title>search</title>
  <path
    d="M20.056 23.046c-2.076 1.479-4.616 2.349-7.36 2.349-7.012 0-12.697-5.685-12.697-12.697s5.685-12.697 12.697-12.697c7.012 0 12.697 5.685 12.697 12.697 0 2.743-0.87 5.284-2.349 7.36l8.342 8.342c0.822 0.822 0.815 2.137-0 2.952l-0.035 0.035c-0.813 0.813-2.137 0.815-2.952 0l-8.342-8.342zM12.697 22.408c5.362 0 9.709-4.347 9.709-9.709s-4.347-9.709-9.709-9.709c-5.362 0-9.709 4.347-9.709 9.709s4.347 9.709 9.709 9.709v0z"></path>
</svg>
